<?xml version="1.0" encoding="UTF-8"?>
<svg xmlns="http://www.w3.org/2000/svg" viewBox="0 0 1817.3 398.6" version="1.1" id="Logo">
  <defs>
    <style>
      .st0 {
        fill: #231f20;
      }
    </style>
  </defs>
  <path d="M286,196.8c-2.3-53.2,8.5-79.1,8.5-114.4s-7.5-49.4-22.2-62.9C254.2,2.9,230.6,2.9,222.9,2.9c-26.4,0-46.5,8.3-59.9,24.7-29.5,36-19.5,101.7-14.2,136.9,1.3,8.9,2.4,15.9,2.3,19.3-.1,4.3-1.9,7.6-4.6,8.7-2.9,1.2-6.4,0-9.7-3.5-7.9-8.2-7.5-32.3-7.2-60.1.5-38.5,1.2-86.5-21.6-110.6-9.9-10.5-23.6-15.8-40.8-15.8-27.5,0-50.9,21.4-55,49.4h0s0,.7,0,.7c0,.5-.1,1.1-.2,1.6l-.2,1.7c-2.8,23.3-1.2,45.5,0,56.7,1.1,9.8,2.1,18.3,3,26.1,2.9,23.8,5.1,42.5,6,76.1.4,14.3-.1,23.6-2.2,34.2-6,31.4-22.4,39.2-17.9,49.2,6.1,13.6,44.8,18.4,66.7,0,15.9-13.4,17.4-34.5,18.3-47.8,2.2-31.2-12.4-62.1-19.3-77.8-.2-.5-20.5-45.9-20.5-88.2s4.2-46.1,12.8-54.9c5-5.1,11.8-8.1,20.7-7,7,.9,11.9,4.7,15.3,8.8,9.8,11.7,5.1,33.7,1.4,60.7-4.8,35.6-10.2,75.9,9.3,99.6,10.9,13.2,28.2,19.8,52.7,20,13.5.2,23.2-3.8,29.2-11.7,13.9-18,6.2-54-1.2-88.8-7-32.6-14.6-64-2.4-78.9,7.6-9.3,16.5-11.1,22.6-11.1s13.3,1.4,20.2,8.2c10.3,10.3,15.2,29,15.2,55v4.4c.1,22.6.3,64.8-18.2,128.8-.8,2.7-1.5,5.3-2.3,7.8-3.6,12.4-6.8,23-7.5,33.7-.5,7.3-.6,16.5,4.9,25.4,5,7.9,12.2,11.6,16.7,13.8,15.9,7.8,46.6,13.5,57.4,0,15.1-18.8-5-58.7-6.8-101.6Z" class="st0"></path>
  <g>
    <path d="M634,86.2c-12,0-21.3,3.7-27.9,11-7.7,8.7-10.9,21.9-9,38.2,1,10.6,4.1,23.3,7.7,38,7.9,32.4,17.6,71.9,7.5,103.7l-68.3-185h-49l72.8,198.9c-41.3,5.7-104.7,21.9-104.7,67.6s27.8,40.1,51.7,40.1c36.6-.6,79.4-28.3,114.6-74,36.6-47.6,57.8-105.3,58.2-158.4,0-50.9-19.5-80.1-53.6-80.1ZM538.1,376.7c-16.5,0-26.2-9.3-26.5-25.3,0-10.1,3.8-19.1,11.4-26.7,19.9-19.6,62-26.4,87.5-26.4s.7,0,1,0v.4c.1,0,.3-.4.3-.4.6,0,1.2,0,1.8,0h2.6c0,0,1.1-2.3,1.1-2.3,22.3-45.2,10.6-91.5,2-125.3-4.4-17.4-8.2-32.4-4.2-37.6.5-.6,2-2.5,7.7-2.5s12.4,2.6,17.3,7.9c13.7,14.7,18,46.4,16.3,71.5-5.2,76-69.5,166.3-118.4,166.7Z" class="st0"></path>
    <path d="M879.1,201.8c-6-17.4-10.9-31.2-28.4-29.6-14.8,1.5-17.8,13.5-21.2,27.3-1.9,7.7-4.1,16.5-8.6,25.7-10,22.5-29.5,30.5-43.1,30.5s-24.3-7.2-27.9-19.3c-8.7-28.4,31.2-46.8,66.9-59.7,29.6-10.7,52.3-21.1,51.8-47.6-.8-18.9-13.1-41.5-67.1-41.5s-61.3,1.7-82.8,23.9c-7.5,7.7-11.1,17.1-10.8,27.8.5,21.3,16.1,30.9,31.4,30.9s16.3-3,22.7-8l3.5-2.8-3.1-3.2c-8.3-8.5-11.6-21.7-8.3-33.5,3.1-10.8,10.9-18.4,22.1-21.2,3.2-.7,7-1.5,10.6-1.5,13.5,0,29.8,6.8,31.7,26.2,1.7,14.7-3.4,35.1-58.8,61.7-13.2,6.4-48.2,23.6-48.2,59.1-.2,14.8,5.4,29.2,15.5,39.5,10.4,10.5,24.6,16.1,41.2,16.1,48.5,0,58.7-45.5,64.3-70,.5-2.3,1-4.5,1.4-6.3.8-2.8,1.5-5.4,2-7.6l26.9,79.5h49l-32.7-96.5Z" class="st0"></path>
    <path d="M518.6,298.3l-32.7-96.5c-6-17.4-10.9-31.1-28.4-29.6-14.8,1.5-17.8,13.5-21.2,27.3-1.9,7.7-4.1,16.5-8.6,25.7-10,22.5-29.5,30.5-43.1,30.5s-24.3-7.2-27.9-19.3c-8.7-28.4,31.2-46.8,66.9-59.7,29.6-10.7,52.3-21.1,51.8-47.6-.8-18.9-13.1-41.5-67.1-41.5s-61.3,1.7-82.8,23.9c-7.5,7.7-11.1,17.1-10.8,27.8.5,21.3,16.1,30.9,31.4,30.9s16.3-3,22.7-8l3.5-2.8-3.1-3.2c-8.3-8.5-11.6-21.7-8.3-33.5,3.1-10.8,10.9-18.4,22.1-21.2,3.2-.7,7-1.5,10.6-1.5,13.5,0,29.8,6.8,31.7,26.2,1.7,14.7-3.4,35.1-58.8,61.7-13.2,6.4-48.2,23.5-48.2,59.1-.2,14.8,5.4,29.2,15.5,39.5,10.4,10.5,24.6,16.1,41.2,16.1,48.5,0,58.7-45.5,64.3-70,.5-2.3,1-4.5,1.4-6.3.8-2.8,1.5-5.4,2-7.6l26.9,79.5h49Z" class="st0"></path>
  </g>
  <g>
    <path d="M1407.1,239.6l1.6-5.2h-12.3l-.9,2.7c-9.8,28.6-28.8,43.7-56.6,44.8-18.4.8-35.5-4.8-46.8-15.6-9.2-8.7-14-20.5-14-33.9,0-24.9,16.6-39.2,45.5-39.2s14.2.6,20.7,1.9c7.8,1.4,14.1,2.1,19.3,2.1,13.7,0,23.8-3.7,30.1-11.1,6.3-7.5,8.4-18.4,6-32.5-8.4-45.8-50.8-66.3-89.2-66.3-57.7,0-96.4,43.5-96.4,108.3s42.4,109.1,103.1,109.1,72.2-6.3,89.9-65.1ZM1349.3,177.1c-3,3.6-7.7,5.4-13.8,5.4s-9.9-.9-14.9-2.6c-6.6-2.3-12.5-3.4-18.8-3.4-10,0-18.2,3.7-24.8,11.3-7.1,7.9-10.7,18.1-11,31-1.9-5.3-3.6-11-5.1-17.1-11.2-42.7-7.7-89.9,25.4-99,3.2-1,6.6-1.4,10.7-1.4,22.7,0,50,18.1,55.9,51.7,1.8,10.9.5,19.2-3.6,24.1Z" class="st0"></path>
    <path d="M1539.8,86.2c-12,0-21.3,3.7-27.9,11-7.7,8.7-10.9,21.9-9,38.2,1,10.6,4.1,23.3,7.7,38,7.9,32.4,17.6,71.9,7.5,103.7l-68.3-185h-49l72.8,198.9c-41.3,5.7-104.7,21.9-104.7,67.6s27.8,40.1,51.7,40.1c36.6-.6,79.4-28.3,114.6-74,36.6-47.6,57.8-105.3,58.2-158.4,0-50.9-19.5-80.1-53.6-80.1ZM1443.9,376.7c-16.5,0-26.2-9.3-26.5-25.3,0-10.1,3.8-19.1,11.4-26.7,19.9-19.6,62-26.4,87.5-26.4s.7,0,1,0v.4c.1,0,.3-.4.3-.4.6,0,1.2,0,1.8,0h2.6c0,0,1.1-2.3,1.1-2.3,22.3-45.2,10.6-91.5,2-125.3-4.4-17.4-8.2-32.4-4.2-37.6.5-.6,2-2.5,7.7-2.5s12.4,2.6,17.3,7.9c13.7,14.7,18,46.4,16.3,71.5-5.2,76-69.5,166.3-118.4,166.7Z" class="st0"></path>
    <path d="M1166.5,86.7c-14.5.9-29,12.3-41.8,21.7-3.6,2.7-6.8,5.1-10.4,6.6-6.2,2.7-12,4.4-22,4.4-9.2,0-18.6-2.8-18.6-2.8v181.7h46.9v-168.2c7.9-9.7,17.7-15.4,26.6-15.4s19.1,4.4,19.2,16.8c.1,3.6-2.1,10.9-5.5,18.2l-1.9,4.1,4.3,1.4c12.1,4,28.1,3,36.6-8.2,4.9-6.4,7.6-15.2,7.6-24.6s-3.4-19.3-10.1-25.6c-8.9-8.3-21.9-10.6-30.9-10Z" class="st0"></path>
    <path d="M1784.5,201.8c-6-17.4-10.9-31.2-28.4-29.6-14.8,1.5-17.8,13.5-21.2,27.3-1.9,7.7-4.1,16.5-8.6,25.7-10,22.5-29.5,30.5-43.1,30.5s-24.3-7.2-27.9-19.3c-8.7-28.4,31.2-46.8,66.9-59.7,29.6-10.7,52.3-21.1,51.8-47.6-.8-18.9-13.1-41.5-67.1-41.5s-61.3,1.7-82.8,23.9c-7.5,7.7-11.1,17.1-10.8,27.8.5,21.3,16.1,30.9,31.4,30.9s16.3-3,22.7-8l3.5-2.8-3.1-3.2c-8.3-8.5-11.6-21.7-8.3-33.5,3.1-10.8,10.9-18.4,22.1-21.2,3.2-.7,7-1.5,10.6-1.5,13.5,0,29.8,6.8,31.7,26.2,1.7,14.7-3.4,35.1-58.8,61.7-13.2,6.4-48.2,23.5-48.2,59.1-.2,14.8,5.4,29.2,15.5,39.5,10.4,10.5,24.6,16.1,41.2,16.1,48.5,0,58.7-45.5,64.3-70,.5-2.3,1-4.5,1.4-6.3.8-2.8,1.4-5.3,2-7.6l26.9,79.5h49l-32.7-96.5Z" class="st0"></path>
  </g>
  <path d="M1126.5,21.8c-7.4-7.4-18-12.3-28.3-13.5-.2,11.6-12.8,18.6-28.6,17.6-26.2-1.7-49.6-11.3-77.6-19.8-20.1-6.3-51.3-9.7-71.2.2-34.8,17.3-24.7,50.9-23,56.9,8.9,31.2,28.7,53.1,38,78.6,7.8,21.3,8.6,39,9.1,50.4,2.6,61-27.7,87.4-13.1,106.2,11.9,15.4,46.6,16.1,63,0,17-16.7,9.7-47.2,8.8-50.9-6.2-24.4-24.9-42.1-38.9-73-8.1-17.8,2-33.1,12-38.1,26.1-13,48.3,11.6,43.6,37,7,.6,14.8-1.3,20.8-5.2,11.2-7.4,17.9-21.8,7.9-37.6-10.4-16.7-29.5-21.8-47.3-14.6-20.7,8.4-49.9,4.1-65.8-12.8-12.4-12.1-21-36.9-3.5-55.4,26.9-28.5,62.8.5,96.5,22.7,32.4,21.5,71.5,35.5,98.1,7.4,18.9-19.7,13.6-42.2-.3-56.1Z" class="st0"></path>
</svg>
